<svg width="184" height="48" viewBox="0 0 184 48" fill="none" xmlns="http://www.w3.org/2000/svg" role="img" aria-labelledby="title desc">
  <title id="title">Chase logo</title>
  <desc id="desc">A compact Chase wordmark with a layered traditional Wu character mark.</desc>
  <style>
    :root {
      --logo-ink: #18181b;
      --logo-muted: #71717a;
      --logo-panel: #ffffff;
      --logo-panel-soft: #f4f4f5;
      --logo-border: rgba(24, 24, 27, 0.12);
      --logo-primary: #4f46e5;
      --logo-accent: #0ea5e9;
      --logo-shadow: rgba(24, 24, 27, 0.18);
    }

    @media (prefers-color-scheme: dark) {
      :root {
        --logo-ink: #fafafa;
        --logo-muted: #a1a1aa;
        --logo-panel: #18181b;
        --logo-panel-soft: #27272a;
        --logo-border: rgba(250, 250, 250, 0.16);
        --logo-primary: #818cf8;
        --logo-accent: #38bdf8;
        --logo-shadow: rgba(0, 0, 0, 0.5);
      }
    }
  </style>

  <filter id="markShadow" x="0" y="0" width="56" height="56" filterUnits="userSpaceOnUse" color-interpolation-filters="sRGB">
    <feDropShadow dx="0" dy="8" stdDeviation="6" flood-color="var(--logo-shadow)" flood-opacity="1" />
  </filter>

  <g filter="url(#markShadow)">
    <rect x="7" y="12" width="34" height="34" rx="12" fill="var(--logo-panel-soft)" />
    <rect x="11" y="10" width="34" height="34" rx="12" fill="var(--logo-panel)" stroke="var(--logo-border)" />
    <text
      x="28"
      y="34.2"
      fill="url(#markStroke)"
      font-family="'Noto Serif TC', 'Songti TC', 'PingFang TC', 'Microsoft JhengHei', serif"
      font-size="23"
      font-weight="800"
      letter-spacing="0"
      text-anchor="middle"
    >吳</text>
    <path d="M16.2 38.1H39.8" stroke="var(--logo-muted)" stroke-width="1.5" stroke-linecap="round" opacity="0.24" />
    <path d="M17.2 15.7H38.4" stroke="var(--logo-muted)" stroke-width="1.5" stroke-linecap="round" opacity="0.18" />
  </g>

  <path d="M57 31.5C57 24.1 62.15 18.8 69.45 18.8C73.38 18.8 76.6 20.34 78.58 23.03L75.54 25.76C74.05 24.04 72.18 23.18 69.68 23.18C65.07 23.18 61.84 26.52 61.84 31.5C61.84 36.48 65.07 39.82 69.68 39.82C72.18 39.82 74.05 38.91 75.54 37.2L78.58 39.95C76.6 42.64 73.38 44.2 69.42 44.2C62.15 44.2 57 38.9 57 31.5Z" fill="var(--logo-ink)" />
  <path d="M94.18 25.08C98.56 25.08 101.64 27.62 101.64 32.98V44H97.05V33.57C97.05 30.16 95.39 28.51 92.56 28.51C89.41 28.51 87.3 30.45 87.3 34.28V44H82.71V17.54H87.3V27.17C88.78 25.8 91.15 25.08 94.18 25.08Z" fill="var(--logo-ink)" />
  <path d="M114.24 25.08C119.78 25.08 122.96 27.73 122.96 33.34V44H118.62V41.79C117.52 43.35 115.33 44.27 112.39 44.27C107.87 44.27 105.02 41.79 105.02 38.35C105.02 35.06 107.24 32.46 113.25 32.46H118.37V32.18C118.37 29.46 116.75 27.87 113.46 27.87C111.24 27.87 108.95 28.61 107.45 29.82L105.66 26.47C107.76 25.54 110.88 25.08 114.24 25.08ZM113.61 40.92C115.75 40.92 117.62 39.95 118.37 38.03V35.92H113.57C110.43 35.92 109.58 37.09 109.58 38.5C109.58 40.12 110.95 40.92 113.61 40.92Z" fill="var(--logo-ink)" />
  <path d="M133.68 44.27C130.43 44.27 127.15 43.39 125.39 42.2L127.14 38.7C128.86 39.81 131.48 40.57 133.95 40.57C136.85 40.57 138.05 39.77 138.05 38.42C138.05 34.68 125.96 38.21 125.96 30.42C125.96 26.72 129.31 25.08 134.61 25.08C137.21 25.08 140.16 25.69 141.95 26.72L140.2 30.22C138.31 29.11 136.41 28.76 134.58 28.76C131.79 28.76 130.52 29.67 130.52 30.94C130.52 34.89 142.61 31.36 142.61 39.02C142.61 42.69 139.22 44.27 133.68 44.27Z" fill="var(--logo-ink)" />
  <path d="M163.75 34.74C163.75 35.09 163.68 35.83 163.65 36.23H148.92C149.47 39.02 151.8 40.81 155.2 40.81C157.39 40.81 159.1 40.12 160.5 38.7L162.97 41.55C161.19 43.66 158.42 44.27 155.09 44.27C148.51 44.27 144.25 40.18 144.25 34.66C144.25 29.14 148.54 25.08 154.42 25.08C160.2 25.08 163.75 28.91 163.75 34.74ZM154.45 28.76C151.5 28.76 149.36 30.65 148.89 33.43H159.36C158.99 30.68 156.89 28.76 154.45 28.76Z" fill="var(--logo-ink)" />

  <path d="M58 13.7H71.2" stroke="url(#wordAccent)" stroke-width="3.2" stroke-linecap="round" />
  <path d="M76.8 13.7H101.6" stroke="var(--logo-border)" stroke-width="3.2" stroke-linecap="round" />
  <text x="119" y="15.8" fill="var(--logo-muted)" font-family="Inter, ui-sans-serif, system-ui, sans-serif" font-size="7.8" font-weight="700" letter-spacing="1.25">CV / BLOG</text>

  <defs>
    <linearGradient id="markStroke" x1="17" y1="15" x2="37" y2="34" gradientUnits="userSpaceOnUse">
      <stop stop-color="var(--logo-primary)" />
      <stop offset="1" stop-color="var(--logo-accent)" />
    </linearGradient>
    <linearGradient id="wordAccent" x1="58" y1="13.7" x2="71.2" y2="13.7" gradientUnits="userSpaceOnUse">
      <stop stop-color="var(--logo-primary)" />
      <stop offset="1" stop-color="var(--logo-accent)" />
    </linearGradient>
  </defs>
</svg>
